<svg width="24" height="24" viewBox="0 0 24 24" fill="none" xmlns="http://www.w3.org/2000/svg">
<g clip-path="url(#clip0_656_895)">
<path fill-rule="evenodd" clip-rule="evenodd" d="M11.9665 2.1409C11.9737 2.1409 11.9808 2.14242 11.9874 2.14537C11.9939 2.1483 11.9998 2.15261 12.0046 2.15799C12.0188 2.17392 12.0335 2.18943 12.0486 2.20448L15.1146 5.2537C15.4145 5.55198 15.8619 5.64589 16.2565 5.49337C16.651 5.34085 16.9189 4.97046 16.9402 4.548C16.9691 3.97465 17.2133 3.43333 17.6241 3.03222L16.8754 2.26573L17.633 3.02334C18.0763 2.57998 18.6777 2.33091 19.3047 2.33091C19.9317 2.33091 20.533 2.57998 20.9763 3.02334C21.4197 3.46671 21.6687 4.06805 21.6687 4.69505C21.6687 5.32206 21.4197 5.92338 20.9763 6.36675L20.9674 6.37568C20.5665 6.78636 20.0251 7.03061 19.4518 7.05953C19.0272 7.08096 18.6554 7.35142 18.5042 7.74882C18.3531 8.14621 18.4514 8.59536 18.7545 8.89349L21.8037 11.8924C21.816 11.9046 21.8287 11.9165 21.8417 11.9281C21.847 11.9329 21.8515 11.9388 21.8544 11.9454C21.8573 11.9519 21.8589 11.959 21.8589 11.9662C21.8589 11.9734 21.8573 11.9806 21.8544 11.9871C21.8515 11.9937 21.847 11.9996 21.8417 12.0044C21.8265 12.0179 21.8117 12.0319 21.7973 12.0463L20.1163 13.7274C20.1017 13.712 20.087 13.6967 20.0722 13.6815L20.0649 13.674C19.2182 12.8214 18.0674 12.3402 16.8658 12.3361C15.6641 12.332 14.5101 12.8053 13.6575 13.6521C12.805 14.4989 12.3237 15.6496 12.3196 16.8513C12.3155 18.0529 12.7888 19.2069 13.6356 20.0594L13.6481 20.072C13.6693 20.0925 13.6908 20.1131 13.7123 20.1333L12.0987 21.8123C12.0895 21.8219 12.0805 21.8317 12.0716 21.8416C12.0668 21.8469 12.061 21.8512 12.0544 21.8541C12.0478 21.857 12.0407 21.8586 12.0335 21.8586C12.0263 21.8586 12.0192 21.857 12.0126 21.8541C12.0061 21.8512 12.0002 21.8469 11.9954 21.8416C11.9812 21.8257 11.9665 21.8101 11.9514 21.795L8.8854 18.7458C8.58685 18.4489 8.14205 18.3544 7.74855 18.5042C7.35506 18.6541 7.08581 19.0206 7.06039 19.4408C7.03292 19.8952 6.87478 20.332 6.60499 20.6987C6.33519 21.0654 5.96523 21.3463 5.53959 21.5077C5.11394 21.6691 4.65072 21.7043 4.20564 21.6086C3.76054 21.5131 3.35252 21.2911 3.03063 20.9692C2.70872 20.6473 2.48666 20.2393 2.39112 19.7942C2.29558 19.349 2.33062 18.8858 2.49206 18.4602C2.65349 18.0345 2.93443 17.6646 3.3011 17.3948C3.66776 17.125 4.10456 16.9669 4.55895 16.9394C4.9814 16.9138 5.34922 16.642 5.49766 16.2457C5.64608 15.8494 5.54731 15.4028 5.24558 15.106L2.19638 12.1071C2.18396 12.0949 2.17126 12.083 2.15828 12.0714C2.1529 12.0666 2.14862 12.0607 2.14567 12.0541C2.14272 12.0476 2.14119 12.0405 2.14119 12.0333C2.14119 12.0261 2.14272 12.0189 2.14567 12.0124C2.14862 12.0058 2.1529 11.9999 2.15828 11.9951C2.17176 11.9831 2.18494 11.9707 2.1978 11.958L3.9116 10.2662C3.92806 10.2836 3.94464 10.3009 3.96137 10.3181C3.97646 10.3336 3.99202 10.3486 4.00802 10.3631C4.86799 11.1451 5.99602 11.566 7.15807 11.5384C8.3201 11.5109 9.42689 11.0369 10.2488 10.215C11.0707 9.39312 11.5446 8.2863 11.5722 7.12428C11.5998 5.96225 11.1789 4.83421 10.3969 3.97422C10.3824 3.95823 10.3673 3.94268 10.3518 3.92758C10.3306 3.90694 10.3093 3.88649 10.2877 3.86626L11.9013 2.1872C11.9105 2.17764 11.9195 2.1679 11.9284 2.15799C11.9332 2.15261 11.9391 2.1483 11.9456 2.14537C11.9522 2.14242 11.9593 2.1409 11.9665 2.1409ZM16.1222 1.50366C15.8238 1.79592 15.5709 2.12638 15.3685 2.48398L13.5787 0.703946C13.3776 0.486088 13.1343 0.311145 12.8636 0.189818C12.5814 0.0633988 12.2757 -0.00195312 11.9665 -0.00195312C11.6573 -0.00195312 11.3516 0.0633988 11.0695 0.189818C10.7944 0.31307 10.5477 0.491654 10.3448 0.714352L7.87673 3.28248C7.6391 3.52974 7.53418 3.87582 7.59452 4.21342C7.65487 4.55101 7.87318 4.83932 8.18175 4.98896C8.42083 5.10488 8.6405 5.25701 8.83304 5.43989C9.23071 5.88929 9.4442 6.47273 9.42994 7.07345C9.41544 7.6849 9.16606 8.26731 8.73356 8.69981C8.30108 9.13229 7.71867 9.38166 7.10722 9.39618C6.50652 9.41043 5.92306 9.19695 5.47368 8.79927C5.2908 8.60672 5.13867 8.38705 5.02275 8.14798C4.87202 7.83713 4.58062 7.61802 4.24013 7.55952C3.89964 7.50101 3.55184 7.61028 3.30598 7.85298L0.708461 10.4172C0.48864 10.619 0.31222 10.8637 0.190111 11.1362C0.063693 11.4184 -0.00165939 11.7241 -0.00165939 12.0333C-0.00165939 12.3425 0.063693 12.6481 0.190111 12.9303C0.312377 13.2032 0.489094 13.4481 0.709311 13.6501L2.47119 15.3829C2.31958 15.4693 2.17262 15.5647 2.03112 15.6688C1.33196 16.1833 0.796272 16.8887 0.488457 17.7002C0.180641 18.5119 0.113807 19.3951 0.295985 20.2439C0.478166 21.0926 0.901603 21.8706 1.51539 22.4845C2.12918 23.0982 2.9072 23.5216 3.7559 23.7038C4.60459 23.8861 5.48786 23.8192 6.29947 23.5113C7.1111 23.2036 7.81652 22.6679 8.33096 21.9686C8.43912 21.8217 8.53786 21.6688 8.62687 21.5109L10.4213 23.2955C10.6224 23.5134 10.8657 23.6884 11.1365 23.8098C11.4186 23.9361 11.7243 24.0014 12.0335 24.0014C12.3427 24.0014 12.6484 23.9361 12.9306 23.8098C13.2057 23.6865 13.4523 23.5079 13.6552 23.2852L16.1233 20.717C16.3609 20.4698 16.4658 20.1237 16.4055 19.786C16.3451 19.4485 16.1268 19.1601 15.8183 19.0106C15.5721 18.8911 15.3464 18.7334 15.1498 18.5431C14.7074 18.0945 14.4603 17.4889 14.4624 16.8586C14.4646 16.2253 14.7182 15.6188 15.1676 15.1725C15.6169 14.7262 16.2251 14.4767 16.8584 14.4789C17.49 14.4811 18.095 14.7334 18.5409 15.1805C18.7322 15.3777 18.8909 15.6042 19.0107 15.8515C19.1621 16.1635 19.4549 16.383 19.7967 16.4406C20.1387 16.4982 20.4873 16.3868 20.7324 16.1417L23.2946 13.5796C23.513 13.3783 23.6883 13.1346 23.8099 12.8633C23.9364 12.5811 24.0017 12.2754 24.0017 11.9662C24.0017 11.6571 23.9364 11.3514 23.8099 11.0692C23.6877 10.7963 23.5109 10.5514 23.2906 10.3494L21.5335 8.62116C21.8842 8.42041 22.2086 8.17095 22.4961 7.87753C23.3385 7.03273 23.8116 5.88829 23.8116 4.69505C23.8116 3.49973 23.3369 2.35335 22.4916 1.50812C21.6465 0.662894 20.4999 0.188051 19.3047 0.188051C18.1114 0.188051 16.967 0.661223 16.1222 1.50366Z" fill="#040136"/>
</g>
<defs>
<clipPath id="clip0_656_895">
<rect width="24" height="24" fill="white"/>
</clipPath>
</defs>
</svg>
