<svg xmlns="http://www.w3.org/2000/svg" fill="none" viewBox="0 0 150 149"><rect width="150" height="149" fill="#f3f5f7" fill-opacity=".7" rx="74.5"/><path fill="#040136" fill-opacity=".7" d="m54.375 79.5 5.125-5-5.125-5.125-5 5.125zm35.813-.625 5.437-8.75 5.5 8.75zM75 74.5q-3.125 0-5.312-2.187Q67.5 70.124 67.5 67q0-3.187 2.188-5.344Q71.875 59.5 75 59.5q3.187 0 5.344 2.156Q82.5 63.813 82.5 67q0 3.125-2.156 5.313T75 74.5m.022-11.25q-1.585 0-2.678 1.072-1.094 1.072-1.094 2.656t1.084 2.678 2.688 1.094 2.665-1.084 1.063-2.688-1.072-2.665-2.656-1.063M45 89.5v-3.312q0-2.467 2.625-3.952Q50.25 80.75 54.4 80.75q.76 0 1.461.031t1.389.14a11 11 0 0 0-.75 2.177q-.25 1.098-.25 2.34V89.5zm15 0v-4.062q0-4.063 4.156-6.563 4.157-2.5 10.844-2.5 6.75 0 10.875 2.5T90 85.438V89.5zm35.625-8.75q4.219 0 6.797 1.486T105 86.187V89.5H93.75v-4.062q0-1.242-.219-2.34a9.7 9.7 0 0 0-.719-2.177q.688-.109 1.386-.14.699-.03 1.427-.031m-20.638-.625q-4.987 0-8.112 1.5t-3.125 3.813v.312h22.5v-.375q0-2.25-3.094-3.75t-8.169-1.5"/></svg>