<svg width="200" height="57" viewBox="0 0 200 57" fill="none" xmlns="http://www.w3.org/2000/svg">
<g clip-path="url(#clip0_3459_1701)">
<path d="M194.43 22.0629L199.772 29.0743C200.041 29.4172 200.079 29.9125 199.849 30.3317L197.85 33.9136C197.62 34.2947 197.197 34.5232 196.736 34.4852L187.897 33.6468C187.398 33.6087 186.937 33.8755 186.744 34.3326L183.286 42.4491C183.094 42.8683 182.709 43.1349 182.248 43.1349L178.098 43.2112C177.637 43.2112 177.214 42.9444 177.022 42.5633L173.333 34.5613C173.14 34.1042 172.641 33.8373 172.141 33.9136L163.341 34.9805C162.88 35.0187 162.457 34.8281 162.227 34.4471L160.113 30.9415C159.882 30.5604 159.882 30.0649 160.152 29.6838L163.226 25.3779C163.418 25.1495 163.649 24.959 163.956 24.9208C167.184 24.3111 170.22 23.93 172.372 23.8919C173.486 23.8919 174.332 23.9682 174.908 24.1587C175.024 24.1968 175.1 24.2729 175.216 24.3492C176.714 25.5685 177.983 27.0166 179.02 28.6551C179.481 29.3791 180.557 29.3409 180.98 28.617C182.44 26.1019 184.516 24.0063 186.975 22.482C187.705 22.0248 187.667 20.9578 186.937 20.5387C184.323 19.0526 182.171 16.9949 180.634 14.48C180.211 13.7941 179.174 13.756 178.713 14.48C177.944 15.6231 176.983 16.8425 176.215 17.7189C175.254 18.862 173.832 19.5479 172.295 19.586H172.257C170.105 19.6241 167.107 19.2812 163.841 18.7858C163.533 18.7477 163.264 18.5953 163.11 18.3286L159.921 14.137C159.652 13.7941 159.613 13.2987 159.844 12.8795L161.842 9.29765C162.073 8.91659 162.496 8.68798 162.957 8.72606L171.795 9.52629C172.295 9.56439 172.756 9.29765 172.948 8.84038L176.407 0.723998C176.599 0.304841 176.983 0.0381051 177.445 0.0381051L181.556 0C182.018 0 182.44 0.266735 182.632 0.647788L186.322 8.64987C186.514 9.10712 187.013 9.37387 187.513 9.29765L196.313 8.23071C196.774 8.1926 197.197 8.38313 197.428 8.76417L199.541 12.2699C199.772 12.6509 199.772 13.1463 199.503 13.5273L194.353 20.6911C194.084 21.1483 194.123 21.6818 194.43 22.0629Z" fill="#06FF89"/>
<path d="M20.5868 35.8028L13.8398 34.3352C11.0516 33.8233 9.70906 32.5945 9.70906 30.6488C9.70906 28.2936 11.6023 27.0989 15.3889 27.0989C19.2443 27.0989 21.3785 28.4644 22.0325 31.3998C22.1358 31.8776 22.5489 32.2189 23.0308 32.2189H28.6073C29.1925 32.2189 29.6744 31.707 29.64 31.1266C29.0203 24.2659 23.8568 20.2041 15.2856 20.2041C6.40443 20.2041 0.896738 24.2659 0.896738 30.7512C0.896738 36.0077 4.27021 39.4552 10.9483 40.9569L17.4887 42.3905C20.3114 42.9367 21.5162 44.029 21.5162 46.0088C21.5162 49.5585 17.6264 50.1046 15.2856 50.1046C11.1892 50.1046 8.81406 48.6369 8.16002 45.7015C8.05676 45.2237 7.64368 44.9165 7.16174 44.9165H1.03443C0.449237 44.9165 -0.0326863 45.4284 0.00173676 46.0088C0.586929 52.9035 6.0602 56.9996 15.2168 56.9996C19.6229 56.9996 23.4094 56.1121 26.129 54.3712C29.2269 52.4257 30.8448 49.4903 30.8448 45.804C30.8448 39.0455 25.3717 36.9292 20.5868 35.8028Z" fill="#040136"/>
<path d="M52.9445 50.4123C52.9445 49.798 52.428 49.3543 51.8084 49.3883C51.12 49.4565 50.6036 49.4908 50.0529 49.4908C46.3351 49.4908 45.6123 47.7499 45.6123 44.951V29.011C45.6123 28.4305 46.0598 27.9868 46.6449 27.9868H51.5331C52.1182 27.9868 52.5657 27.543 52.5657 26.9628V21.9112C52.5657 21.3309 52.1182 20.8872 51.5331 20.8872H46.6449C46.0598 20.8872 45.6123 20.4435 45.6123 19.8632V12.9683C45.6123 12.388 45.1648 11.9443 44.5796 11.9443H37.5917C37.0066 11.9443 36.5591 12.388 36.5591 12.9683V19.8973C36.5591 20.4776 36.1116 20.9213 35.5262 20.9213H31.671C31.0858 20.9213 30.6383 21.3651 30.6383 21.9453V26.9971C30.6383 27.5773 31.0858 28.0211 31.671 28.0211H35.5262C36.1116 28.0211 36.5591 28.4648 36.5591 29.045V46.3162C36.5591 53.2796 40.3111 56.7952 47.7465 56.7952C49.3299 56.7952 50.8102 56.6587 52.1527 56.3514C52.6347 56.249 52.9445 55.8396 52.9445 55.3615V50.4123Z" fill="#040136"/>
<path d="M70.3971 20.2383C60.1733 20.2383 54.9756 23.8565 54.9756 30.9901V31.8095C54.9756 32.3213 55.3886 32.731 55.9051 32.731H62.5831C63.0993 32.731 63.5124 32.3213 63.5124 31.8095C63.5124 28.5325 65.75 26.86 70.2249 26.86C74.5279 26.86 76.4555 28.4985 76.4555 32.2189V32.9358C76.4555 34.6424 75.5605 35.1886 72.1183 35.6664L65.5089 36.5539C59.7258 37.3389 53.1167 39.2163 53.1167 46.9644C53.1167 53.2449 57.4197 56.9996 64.6484 56.9996C73.3231 56.9996 76.1457 51.1629 76.5932 50.0365H76.6277V55.293C76.6277 55.8732 77.0751 56.317 77.6603 56.317H84.3041C84.8893 56.317 85.3368 55.8732 85.3368 55.293V31.8776C85.3368 23.8222 80.724 20.2383 70.3971 20.2383ZM76.421 43.995C76.421 47.9543 71.2233 50.3778 67.471 50.3778C64.0288 50.3778 62.1356 48.9101 62.1356 46.2477C62.1356 43.9266 63.6845 42.5613 66.8859 42.0835L72.4626 41.1961C73.805 41.0253 74.7687 40.7864 75.4918 40.5134C75.9393 40.3427 76.421 40.684 76.421 41.1618V43.995Z" fill="#040136"/>
<path d="M111.498 20.6824C110.878 20.58 110.19 20.5117 109.467 20.5117C105.371 20.5117 102.17 22.389 100.242 25.7683C99.8977 26.3826 98.9682 26.1096 98.9682 25.427V21.9112C98.9682 21.3309 98.5207 20.8872 97.9356 20.8872H90.9477C90.3623 20.8872 89.9148 21.3309 89.9148 21.9112V55.2934C89.9148 55.8736 90.3623 56.3174 90.9477 56.3174H97.9356C98.5207 56.3174 98.9682 55.8736 98.9682 55.2934V39.831C98.9682 32.5949 102.892 28.26 109.467 28.26C109.88 28.26 110.638 28.294 111.257 28.3624C111.842 28.3965 112.359 27.9527 112.359 27.3384V21.6722C112.359 21.1944 111.98 20.7507 111.498 20.6824Z" fill="#040136"/>
<path d="M158.899 56.3169C159.725 56.3169 160.207 55.3954 159.76 54.7125L148.572 38.8065C148.4 38.5676 148.4 38.2604 148.572 38.0215L159.14 22.491C159.587 21.8083 159.105 20.8867 158.279 20.8867H150.81C150.465 20.8867 150.121 21.0574 149.949 21.3646L143.787 30.99C143.512 31.3997 142.892 31.3997 142.617 30.99L136.386 21.3646C136.18 21.0574 135.87 20.8867 135.526 20.8867H128.056C127.23 20.8867 126.748 21.8083 127.195 22.491L137.763 38.0215C137.935 38.2604 137.935 38.5676 137.763 38.7725L126.644 54.7125C126.163 55.3954 126.644 56.3169 127.505 56.3169H134.872C135.216 56.3169 135.526 56.1461 135.732 55.8732L142.651 45.8039C142.926 45.3942 143.512 45.3942 143.787 45.8039L150.603 55.8389C150.81 56.1121 151.119 56.2826 151.463 56.2826L158.899 56.3169Z" fill="#040136"/>
<path d="M123.237 22.2527V55.2936C123.237 55.8738 122.789 56.3175 122.204 56.3175H115.216C114.631 56.3175 114.183 55.8738 114.183 55.2936V22.2527C114.183 21.6724 114.631 21.2287 115.216 21.2287H122.204C122.755 21.2287 123.237 21.7065 123.237 22.2527ZM122.204 11.3301H115.216C114.631 11.3301 114.183 11.7738 114.183 12.3541V17.8836C114.183 18.4639 114.631 18.9076 115.216 18.9076H122.204C122.789 18.9076 123.237 18.4639 123.237 17.8836V12.3541C123.237 11.7738 122.755 11.3301 122.204 11.3301Z" fill="#040136"/>
</g>
<defs>
<clipPath id="clip0_3459_1701">
<rect width="200" height="57" fill="white"/>
</clipPath>
</defs>
</svg>
